# xmcd
#
# Track frame offsets: 
#        182
#        12515
#        25602
#        36030
#        45465
#        60405
#        72725
#        86367
#        99532
#        113000
#
# Disc length: 1653 seconds
#
# Revision: 2
# Processed by: cddbd v1.5.2PL0 Copyright (c) Steve Scherf et al.
# Submitted via: ExactAudioCopy v1.0b1
#
DISCID=7506730a
DTITLE=Various Artist - Country Music Classics Volume XV 1950 - 1955
DYEAR=1993
DGENRE=Country
TTITLE0=Hank Thompson - The Wild Side Of Life
TTITLE1=Kitty Wells - Makin' Believe
TTITLE2=Faron Young - Live Fast, Love Hard, Die Young
TTITLE3=Webb Pierce - In The Jailhouse Now
TTITLE4=Slim Whitman - Indian Love Call
TTITLE5=Hank Williams - Your Cheatin' Heart
TTITLE6=Pee Wee King and His Band - Slow Poke
TTITLE7=Bob Wills and His Texas Playboys - Faded Love
TTITLE8=Stuart Hamblen - This Ole House
TTITLE9=Ernest Tubb - The Yellow Rose of Texas
EXTD=
EXTT0=
EXTT1=
EXTT2=
EXTT3=
EXTT4=
EXTT5=
EXTT6=
EXTT7=
EXTT8=
EXTT9=
PLAYORDER=
